# xmcd CD database file
# Copyright (C) 1993-1996 Ti Kan
#
# Track frame offsets:
#	150
#	20167
#	32187
#	48337
#	57335
#	72797
#	92450
#	107202
#	119307
#	138455
#	150892
#	165225
#
# Disc length: 2386 seconds
#
# Revision: 1
# Processed by: cddbd v1.4b41PL1 Copyright (c) Steve Scherf et al.
# Submitted via: CDValet v3.01 - Copyright (c) 1997 Greg Leichner
#
DISCID=9509500c
DTITLE=David Allan Coe - The Original Outlaw
DYEAR=1900
DGENRE=
TTITLE0=A Satisfied Mind
TTITLE1=Ruby, Don't Take Your Love To Town
TTITLE2=Give My Love To Rose
TTITLE3=Fuzzy Was An Outlaw
TTITLE4=Mary Magdeline
TTITLE5=That Old Time Feeling
TTITLE6=Why Me
TTITLE7=Got You On My Mind
TTITLE8=You Can Always Come Back To Me
TTITLE9=Mississippi Woman
TTITLE10=Ride Me Down Easy
TTITLE11=Why You Been Gone So Long
EXTD=
EXTT0=
EXTT1=
EXTT2=
EXTT3=
EXTT4=
EXTT5=
EXTT6=
EXTT7=
EXTT8=
EXTT9=
EXTT10=
EXTT11=
PLAYORDER=
